<svg xmlns="http://www.w3.org/2000/svg" width="512" height="512" viewBox="0 0 512 512" version="1.1">
	<path d="M 187.624 1.577 C 167.321 6.109, 149.206 17.191, 136.326 32.957 L 130.809 39.710 121.155 40.340 C 80.538 42.994, 48.962 68.941, 37.695 108.921 C 35.625 116.267, 35.549 118.605, 35.234 184.838 C 34.877 259.983, 34.832 259.326, 40.917 267.727 C 48.311 277.934, 62.402 282.860, 74.250 279.379 C 75.908 278.892, 76.001 283.808, 76.015 372.683 C 76.031 475.235, 75.911 472.952, 81.885 484.760 C 87.859 496.567, 99.165 506.117, 111.783 510.015 C 118.027 511.943, 121.304 512, 226.500 512 C 331.696 512, 334.973 511.943, 341.217 510.015 C 353.835 506.117, 365.141 496.567, 371.115 484.760 C 375.813 475.474, 376.969 468.481, 376.985 449.250 L 377 432 405.895 432 C 431.893 432, 435.434 431.801, 441.217 430.015 C 458.155 424.783, 471.317 410.478, 475.494 392.760 C 477.696 383.423, 477.696 209.577, 475.494 200.240 C 471.317 182.522, 458.155 168.217, 441.217 162.985 C 435.434 161.199, 431.893 161, 405.895 161 L 377 161 377 146.200 L 377 131.399 382.335 125.891 C 408.902 98.463, 396.890 53.536, 360.068 42.612 C 353.426 40.641, 339.950 40.509, 333.817 42.354 L 329.317 43.709 324.468 38.210 C 318.423 31.353, 309.596 25.573, 301.217 22.985 C 293.356 20.557, 280.550 20.350, 273.201 22.533 L 268.039 24.066 260.769 18.521 C 252.133 11.933, 240.329 5.967, 229.992 2.966 C 219.981 0.059, 197.698 -0.671, 187.624 1.577 M 196.854 21.073 C 179.060 23.470, 161.394 33.757, 151.156 47.684 C 148.401 51.433, 144.944 55.962, 143.475 57.750 L 140.803 61 129.349 61 C 115.892 61, 106.456 62.858, 96.500 67.467 C 81.600 74.365, 69.826 85.916, 62.832 100.500 C 56.054 114.635, 56.037 114.852, 56.017 187.734 L 56 252.968 58.898 256.211 C 62.807 260.587, 68.658 260.796, 72.750 256.706 L 75.500 253.957 76 210 L 76.500 166.043 79.140 163.405 C 81.322 161.224, 83.402 160.528, 91.140 159.391 C 108.204 156.885, 120.249 148.847, 128.992 134.130 C 134.607 124.679, 138.853 121.731, 147.660 121.171 C 155.958 120.642, 160.703 122.454, 169.607 129.549 C 179.003 137.038, 185.237 139.353, 196 139.353 C 206.697 139.353, 213.296 136.937, 221.542 130 C 230.777 122.231, 233.881 121.048, 245.090 121.022 C 267.293 120.971, 284.365 129.493, 291.245 144.062 C 295.235 152.511, 296 159.373, 296 186.733 C 296 214.283, 296.375 216.483, 301.472 218.805 C 304.764 220.305, 306.236 220.305, 309.528 218.805 C 314.946 216.337, 314.999 215.846, 315.015 167.800 C 315.026 134.523, 315.339 122.878, 316.273 121 C 316.956 119.625, 319.210 117.671, 321.281 116.657 C 325.034 114.819, 325.067 114.822, 332.510 117.536 C 342.356 121.127, 353.236 120.810, 360.200 116.728 C 365.167 113.818, 370.945 107.854, 373.685 102.810 C 376.458 97.704, 376.203 83.867, 373.232 78.278 C 367.311 67.139, 358.472 61.667, 346.399 61.667 C 340.050 61.667, 338.127 62.116, 332.859 64.833 C 322.869 69.986, 318.453 68.822, 313.921 59.843 C 307.567 47.257, 299.080 41.642, 286.533 41.722 C 280.735 41.760, 278.188 42.303, 274.043 44.385 C 265.953 48.448, 263.187 47.993, 255.788 41.382 C 247.710 34.165, 242.464 30.576, 234.730 26.976 C 222.973 21.505, 209.380 19.386, 196.854 21.073 M 145.617 146.942 C 135.668 163.061, 120.149 174.279, 101.250 179.013 L 97 180.077 97 316.039 L 97 452 135.500 452 L 174 452 173.996 304.250 L 173.993 156.500 167.537 153.162 C 163.987 151.326, 159.151 148.143, 156.791 146.088 C 150.145 140.302, 149.694 140.337, 145.617 146.942 M 377 190.919 L 377 201 403.750 201.032 C 423.223 201.055, 430.921 201.395, 432.046 202.282 C 434.738 204.403, 436.999 208.357, 437.017 210.973 C 437.031 213.070, 437.954 213.898, 442.443 215.841 C 445.419 217.129, 449.737 219.795, 452.040 221.766 L 456.227 225.350 455.819 213.925 C 455.486 204.602, 455.004 201.723, 453.199 198.278 C 449.758 191.708, 445.370 187.329, 439.182 184.290 L 433.500 181.500 405.250 181.169 L 377 180.837 377 190.919 M 138.766 202.918 L 135.500 205.836 135.236 304.440 C 134.941 414.132, 134.550 407.661, 141.652 410.628 C 146.372 412.600, 151.428 410.981, 154.082 406.647 C 155.955 403.588, 156.002 400.737, 155.754 304.668 L 155.500 205.836 152.234 202.918 C 147.821 198.975, 143.179 198.975, 138.766 202.918 M 377 296.500 L 377 372 396.500 372 L 416 372 416 296.500 L 416 221 396.500 221 L 377 221 377 296.500 M 377 402 L 377 412 402 412 L 427 412 427 402 L 427 392 402 392 L 377 392 377 402 M 99 472.804 C 99 474.686, 105.061 482.945, 108.199 485.338 C 116.087 491.355, 116.716 491.449, 151.619 491.811 L 183.737 492.145 180.405 485.524 C 178.572 481.883, 176.781 477.350, 176.425 475.452 L 175.777 472 137.389 472 C 116.275 472, 99 472.362, 99 472.804" stroke="none" fill="black" fill-rule="evenodd"/>
</svg>